#!OML:ASF E:\Style3\Style3.ASF
:FULLY-SPECIFIED
:DEGREES
3201
root -1.05222 17.8819 -0.522456 -864.325 84.8399 -886.772
lowerback 6.34831 -1.30669 -2.98617
upperback -4.75605 -1.87263 1.89799
thorax -8.43229 -0.655735 3.93992
lowerneck -4.19475 -9.85109 -11.5699
upperneck 14.4707 -14.1653 13.8129
head 6.91595 -6.53453 5.15298
rclavicle -1.87355e-014 -5.40694e-014
rhumerus 28.6768 -6.8265 -729.335
rradius 93.9651
rwrist -4.02017
rhand -7.15701 17.6844
rfingers 7.12502
rthumb 18.7198 -11.4348
lclavicle -1.87355e-014 -5.40694e-014
lhumerus 367.156 -6.34672 1115.01
lradius 93.7033
lwrist -2.81889
lhand -33.0778 20.2053
lfingers 7.12502
lthumb -6.28928 50.092
rfemur -25.0815 9.34854 11.9657
rtibia 13.31
rfoot -10.0072 -23.8823
rtoes -16.3694
lfemur -29.3488 -13.1637 -14.4043
ltibia 14.6759
lfoot -7.08838 12.7373
ltoes -14.6147
3202
root -1.06781 17.881 -0.529705 -863.361 85.2768 -885.745
lowerback 6.39813 -1.372 -2.84064
upperback -4.63817 -1.94303 1.97528
thorax -8.32873 -0.701803 3.9476
lowerneck -4.32896 -9.79358 -11.7959
upperneck 14.499 -14.0529 13.7583
head 6.9459 -6.49254 5.17718
rclavicle -1.86112e-014 2.41275e-014
rhumerus 28.9129 -6.60063 -729.479
rradius 93.066
rwrist -2.89976
rhand -7.45439 17.176
rfingers 7.12502
rthumb 18.4338 -11.9706
lclavicle -1.86112e-014 2.41275e-014
lhumerus 368.475 -6.7364 1115.32
lradius 92.9343
lwrist -2.7157
lhand -33.3624 21.3361
lfingers 7.12502
lthumb -6.56404 51.2143
rfemur -25.1947 9.3873 11.8409
rtibia 13.3688
rfoot -9.95388 -23.5334
rtoes -16.3451
lfemur -29.3865 -12.9971 -14.56
ltibia 14.915
lfoot -7.24166 12.9446
ltoes -14.4389
3203
root -1.08324 17.8792 -0.532412 -862.218 85.697 -884.525
lowerback 6.54024 -1.44799 -2.73031
upperback -4.55596 -2.03396 2.04242
thorax -8.31587 -0.752947 3.97182
lowerneck -4.49709 -9.72601 -11.897
upperneck 14.5859 -13.9284 13.6371
head 6.98447 -6.43906 5.16005
rclavicle 6.51952e-015 1.717e-014
rhumerus 29.1485 -6.30147 -729.682
rradius 92.2032
rwrist -2.01267
rhand -7.84932 16.7109
rfingers 7.12502
rthumb 18.0538 -12.4712
lclavicle 6.51952e-015 1.717e-014
lhumerus 369.85 -7.29327 1115.43
lradius 92.2094
lwrist -2.29161
lhand -33.9332 22.1481
lfingers 7.12502
lthumb -7.11513 52.0085
rfemur -25.3053 9.54914 11.7007
rtibia 13.418
rfoot -9.74412 -23.3617
rtoes -16.888
lfemur -29.3831 -12.7915 -14.7078
ltibia 15.0969
lfoot -7.29774 13.0971
ltoes -14.0732
3204
root -1.0993 17.8764 -0.535241 -861.149 86.0705 -883.379
lowerback 6.87366 -1.60617 -2.54882
upperback -4.55949 -2.23429 2.06624
thorax -8.50281 -0.856384 3.93582
lowerneck -4.75668 -9.59446 -11.6214
upperneck 14.7734 -13.7095 13.2524
head 7.01152 -6.33109 5.00438
rclavicle 5.7983e-014 -7.87684e-015
rhumerus 29.5098 -5.93665 -730.126
rradius 91.3568
rwrist -1.22748
rhand -8.12232 16.4094
rfingers 7.12502
rthumb 17.7911 -12.7968
lclavicle 5.7983e-014 -7.87684e-015
lhumerus 371.048 -7.96269 1115.2
lradius 91.5274
lwrist -1.673
lhand -34.5896 22.8623
lfingers 7.12502
lthumb -7.74871 52.7004
rfemur -25.4148 9.69693 11.5627
rtibia 13.484
rfoot -9.59193 -23.2134
rtoes -17.155
lfemur -29.3885 -12.5917 -14.8614
ltibia 15.2563
lfoot -7.38666 13.2124
ltoes -13.3112
3205
root -1.11446 17.8752 -0.538516 -859.308 86.4219 -881.47
lowerback 6.80524 -1.77223 -2.66544
upperback -4.35356 -2.4525 2.31099
thorax -8.20664 -0.960629 4.28079
lowerneck -4.94358 -9.41487 -11.4208
upperneck 14.6197 -13.3887 12.8215
head 6.90703 -6.19584 4.85992
rclavicle 4.30151e-014 1.06723e-014
rhumerus 30.2095 -5.79762 -730.407
rradius 90.4526
rwrist -0.538824
rhand -8.35948 15.9322
rfingers 7.12502
rthumb 17.5629 -13.2946
lclavicle 4.30151e-014 1.06723e-014
lhumerus 372.13 -8.1129 1115.42
lradius 90.6374
lwrist -1.52498
lhand -35.0573 23.5182
lfingers 7.12502
lthumb -8.2001 53.3391
rfemur -25.5193 9.84261 11.4814
rtibia 13.5509
rfoot -9.35942 -23.0909
rtoes -17.832
lfemur -29.3898 -12.334 -14.9926
ltibia 15.4152
lfoot -7.47242 13.2531
ltoes -13.7133
3206
root -1.129 17.8716 -0.542715 -856.699 86.781 -878.798
lowerback 6.88829 -1.89636 -2.5837
upperback -4.2199 -2.6036 2.45115
thorax -8.09391 -1.0407 4.4026
lowerneck -5.16312 -9.28218 -11.3411
upperneck 14.5858 -13.1586 12.5784
head 6.88214 -6.09259 4.78441
rclavicle -3.41972e-014 -3.56818e-014
rhumerus 30.7666 -5.57975 -730.742
rradius 89.4855
rwrist 0.0549136
rhand -8.63393 15.4534
rfingers 7.12502
rthumb 17.2988 -13.7967
lclavicle -3.41972e-014 -3.56818e-014
lhumerus 373.296 -8.31097 1115.78
lradius 89.5771
lwrist -1.76518
lhand -35.4047 24.6015
lfingers 7.12502
lthumb -8.53537 54.409
rfemur -25.6388 9.80153 11.474
rtibia 13.6198
rfoot -9.09122 -22.8153
rtoes -18.5471
lfemur -29.3714 -12.1183 -15.0967
ltibia 15.5434
lfoot -7.36616 13.375
ltoes -14.6332
3207
root -1.1458 17.8702 -0.548632 -854.396 87.1581 -876.433
lowerback 7.13433 -2.00707 -2.40949
upperback -4.1449 -2.73466 2.51507
thorax -8.14878 -1.11264 4.3995
lowerneck -5.57054 -9.1784 -11.2134
upperneck 14.7231 -12.9646 12.2828
head 6.94364 -5.99662 4.67183
rclavicle -3.15695e-014 1.70955e-014
rhumerus 31.2305 -5.30276 -731.117
rradius 88.51
rwrist 0.467347
rhand -8.8347 15.2469
rfingers 7.12502
rthumb 17.1056 -14.0201
lclavicle -3.15695e-014 1.70955e-014
lhumerus 374.598 -8.65356 1116.07
lradius 88.4504
lwrist -1.89481
lhand -35.4814 25.8168
lfingers 7.12502
lthumb -8.60938 55.6212
rfemur -25.7829 9.80519 11.3697
rtibia 13.7163
rfoot -8.91083 -22.5296
rtoes -18.9299
lfemur -29.3465 -11.9572 -15.2487
ltibia 15.6394
lfoot -7.2744 13.5361
ltoes -14.768
3208
root -1.16203 17.8701 -0.555214 -851.788 87.4721 -873.773
lowerback 7.36685 -2.12468 -2.16496
upperback -4.11429 -2.86754 2.54741
thorax -8.24877 -1.18813 4.32531
lowerneck -5.72815 -9.06356 -11.0036
upperneck 14.7453 -12.7642 11.9332
head 6.91516 -5.90879 4.54067
rclavicle -2.85753e-015 -5.86415e-015
rhumerus 31.6115 -4.9545 -731.586
rradius 87.4845
rwrist 0.940383
rhand -9.14244 15.1925
rfingers 7.12502
rthumb 16.8093 -14.0999
lclavicle -2.85753e-015 -5.86415e-015
lhumerus 375.945 -9.21056 1116.15
lradius 87.502
lwrist -1.68928
lhand -35.6605 27.0892
lfingers 7.12502
lthumb -8.78218 56.8864
rfemur -25.9048 9.95272 11.2224
rtibia 13.7854
rfoot -8.87651 -22.4227
rtoes -18.6554
lfemur -29.3367 -11.8687 -15.3517
ltibia 15.7208
lfoot -7.28697 13.7091
ltoes -15.4323
3209
root -1.17717 17.8685 -0.560052 -848.318 87.8047 -870.286
lowerback 7.49362 -2.20764 -2.06191
upperback -4.11894 -2.96237 2.62818
thorax -8.32047 -1.23548 4.37373
lowerneck -5.55732 -8.94969 -10.8711
upperneck 14.6025 -12.5682 11.5848
head 6.78333 -5.84219 4.43597
rclavicle 2.18912e-014 1.2921e-015
rhumerus 31.9729 -4.55958 -731.966
rradius 86.4508
rwrist 1.40146
rhand -9.21424 15.429
rfingers 7.12502
rthumb 16.7402 -13.8692
lclavicle 2.18912e-014 1.2921e-015
lhumerus 377.245 -9.97304 1116.16
lradius 86.6979
lwrist -1.17951
lhand -36.4331 28.5793
lfingers 7.12502
lthumb -9.52766 58.3439
rfemur -26.0616 10.0259 11.0908
rtibia 13.8434
rfoot -8.73195 -22.1854
rtoes -18.669
lfemur -29.3551 -11.7144 -15.4783
ltibia 15.7709
lfoot -7.33744 13.8634
ltoes -15.9619
3210
root -1.1898 17.8692 -0.564819 -842.198 88.141 -864.129
lowerback 7.5194 -2.27115 -1.97812
upperback -4.03952 -3.03165 2.72589
thorax -8.24251 -1.27428 4.43803
lowerneck -5.45836 -8.85305 -10.7133
upperneck 14.4039 -12.3888 11.2199
head 6.64715 -5.78181 4.31709
rclavicle 2.50469e-014 -2.48481e-014
rhumerus 32.3014 -4.28281 -732.312
rradius 85.5831
rwrist 1.77935
rhand -9.18424 15.5914
rfingers 7.12502
rthumb 16.7691 -13.7044
lclavicle 2.50469e-014 -2.48481e-014
lhumerus 378.511 -10.4214 1116.5
lradius 85.5368
lwrist -1.05711
lhand -37.3976 28.9543
lfingers 7.12502
lthumb -10.4582 58.6741
rfemur -26.1887 10.1349 10.989
rtibia 13.8788
rfoot -8.52738 -21.9449
rtoes -19.3083
lfemur -29.3245 -11.5756 -15.5698
ltibia 15.8062
lfoot -7.493 14.0783
ltoes -15.3562
3211
root -1.20301 17.8673 -0.569014 -832.116 88.4456 -854.022
lowerback 7.566 -2.32845 -1.90026
upperback -3.96966 -3.09047 2.85461
thorax -8.18618 -1.30565 4.53895
lowerneck -5.44027 -8.72699 -10.5617
upperneck 14.243 -12.1607 10.8185
head 6.53104 -5.69682 4.18945
rclavicle 3.51352e-014 -2.00773e-014
rhumerus 32.7322 -4.0483 -732.664
rradius 84.7162
rwrist 2.19629
rhand -9.03728 15.5082
rfingers 7.12502
rthumb 16.9106 -13.7756
lclavicle 3.51352e-014 -2.00773e-014
lhumerus 379.718 -10.6951 1117.09
lradius 84.208
lwrist -1.18394
lhand -38.1841 28.099
lfingers 7.12502
lthumb -11.2169 57.7791
rfemur -26.3529 10.3355 10.8911
rtibia 13.9231
rfoot -8.47753 -21.7851
rtoes -19.5545
lfemur -29.2952 -11.2835 -15.7008
ltibia 15.838
lfoot -7.42708 14.22
ltoes -15.997
3212
root -1.21768 17.8657 -0.574408 -819.363 88.6572 -841.214
lowerback 7.66042 -2.41634 -1.79681
upperback -3.8853 -3.18693 2.99602
thorax -8.13923 -1.35636 4.64638
lowerneck -5.41833 -8.5905 -10.4323
upperneck 14.0778 -11.9183 10.4225
head 6.41474 -5.60537 4.06891
rclavicle 2.13694e-015 -1.25234e-014
rhumerus 33.2084 -3.82676 -733.016
rradius 83.8281
rwrist 2.54361
rhand -8.91913 15.4785
rfingers 7.12502
rthumb 17.0243 -13.7955
lclavicle 2.13694e-015 -1.25234e-014
lhumerus 380.947 -11.1785 1117.19
lradius 83.3922
lwrist -1.01747
lhand -38.7395 28.9381
lfingers 7.12502
lthumb -11.7524 58.5884
rfemur -26.4656 10.592 10.7825
rtibia 13.9548
rfoot -8.34388 -21.727
rtoes -19.5428
lfemur -29.2341 -10.9454 -15.8703
ltibia 15.8725
lfoot -7.23791 14.3291
ltoes -16.7141
3213
root -1.23255 17.8659 -0.580402 -807.576 88.8078 -829.411
lowerback 7.71101 -2.54339 -1.66636
upperback -3.77066 -3.33442 3.12289
thorax -8.03149 -1.43624 4.72568
lowerneck -5.50744 -8.46417 -10.3865
upperneck 13.9491 -11.6925 10.1277
head 6.34396 -5.51502 3.98745
rclavicle -6.85807e-015 7.7526e-015
rhumerus 33.7071 -3.6513 -733.348
rradius 82.9825
rwrist 2.97446
rhand -8.88372 15.3378
rfingers 7.12502
rthumb 17.0584 -13.9333
lclavicle -6.85807e-015 7.7526e-015
lhumerus 382.347 -11.6228 1117.04
lradius 82.4202
lwrist -0.809283
lhand -39.2977 31.4204
lfingers 7.12502
lthumb -12.2907 61.0392
rfemur -26.5785 10.6869 10.678
rtibia 13.9824
rfoot -8.06616 -21.6252
rtoes -20.3067
lfemur -29.2526 -10.7851 -15.9838
ltibia 15.9195
lfoot -7.02914 14.3875
ltoes -16.9153
3214
root -1.2472 17.8676 -0.584866 -789.884 88.9851 -811.726
lowerback 7.79422 -2.65656 -1.67597
upperback -3.68412 -3.48165 3.22121
thorax -7.96693 -1.50803 4.85704
lowerneck -5.64807 -8.34083 -10.2647
upperneck 13.8535 -11.4689 9.77514
head 6.28575 -5.42337 3.8731
rclavicle 3.89121e-014 2.42517e-014
rhumerus 34.3249 -3.38693 -733.674
rradius 82.0711
rwrist 3.63028
rhand -8.97507 14.942
rfingers 7.12502
rthumb 16.9704 -14.3366
lclavicle 3.89121e-014 2.42517e-014
lhumerus 383.664 -11.9362 1117.03
lradius 81.1398
lwrist -0.599538
lhand -39.3444 32.2538
lfingers 7.12502
lthumb -12.3358 61.8699
rfemur -26.7442 10.7776 10.4454
rtibia 14.0232
rfoot -7.97209 -21.4583
rtoes -20.2395
lfemur -29.2327 -10.5441 -16.2496
ltibia 15.9318
lfoot -6.69959 14.4433
ltoes -18.3855
3215
root -1.26261 17.8688 -0.589614 -765.89 88.9042 -787.73
lowerback 7.82731 -2.72788 -1.6849
upperback -3.54775 -3.56726 3.38504
thorax -7.82086 -1.55055 5.04337
lowerneck -5.74452 -8.21151 -10.2523
upperneck 13.6471 -11.2417 9.54272
head 6.19921 -5.33058 3.81705
rclavicle 5.1684e-014 -3.18055e-014
rhumerus 34.9609 -3.14587 -733.934
rradius 81.1859
rwrist 4.23415
rhand -9.03207 14.475
rfingers 7.12502
rthumb 16.9156 -14.8083
lclavicle 5.1684e-014 -3.18055e-014
lhumerus 384.919 -12.2116 1117.05
lradius 80.0383
lwrist -0.107967
lhand -39.0599 32.0252
lfingers 7.12502
lthumb -12.0614 61.6576
rfemur -26.9165 10.9072 10.3201
rtibia 14.036
rfoot -7.63669 -21.2336
rtoes -20.8616
lfemur -29.1816 -10.2637 -16.4074
ltibia 15.8857
lfoot -6.54966 14.5442
ltoes -18.8458
